<svg xmlns="http://www.w3.org/2000/svg">
    <symbol id="arrow-right-icon" viewBox="0 0 32 32">
        <path d="M6.6666 17.3334H22.4799L17.6399 23.1467C17.4136 23.419 17.3047 23.77 17.3372 24.1226C17.3697 24.4752 17.541 24.8004 17.8133 25.0267C18.0856 25.253 18.4366 25.3619 18.7892 25.3294C19.1417 25.2969 19.4669 25.1256 19.6933 24.8534L26.3599 16.8534C26.4048 16.7897 26.4449 16.7229 26.4799 16.6534C26.4799 16.5867 26.4799 16.5467 26.5733 16.48C26.6337 16.3271 26.6653 16.1644 26.6666 16C26.6653 15.8356 26.6337 15.6729 26.5733 15.52C26.5733 15.4534 26.5733 15.4134 26.4799 15.3467C26.4449 15.2772 26.4048 15.2103 26.3599 15.1467L19.6933 7.14669C19.5679 6.99618 19.4109 6.87514 19.2335 6.79218C19.056 6.70921 18.8625 6.66637 18.6666 6.66669C18.3551 6.66608 18.0531 6.77458 17.8133 6.97335C17.6783 7.08529 17.5666 7.22275 17.4848 7.37788C17.403 7.53301 17.3526 7.70275 17.3365 7.87739C17.3204 8.05203 17.339 8.22812 17.391 8.39559C17.4431 8.56306 17.5277 8.71862 17.6399 8.85335L22.4799 14.6667H6.6666C6.31298 14.6667 5.97384 14.8072 5.72379 15.0572C5.47374 15.3073 5.33327 15.6464 5.33327 16C5.33327 16.3536 5.47374 16.6928 5.72379 16.9428C5.97384 17.1929 6.31298 17.3334 6.6666 17.3334Z"/>
    </symbol>
    <symbol id="arrow-left-icon" viewBox="0 0 32 32">
        <path d="M25.333 14.667H9.52l4.84-5.814a1.335 1.335 0 00-2.053-1.706l-6.667 8c-.045.063-.085.13-.12.2 0 .066 0 .106-.094.173-.06.153-.092.316-.093.48.001.164.033.327.093.48 0 .067 0 .107.094.173.035.07.075.137.12.2l6.667 8a1.332 1.332 0 001.026.48 1.333 1.333 0 001.027-2.186l-4.84-5.814h15.813a1.334 1.334 0 000-2.666z"/>
    </symbol>
    <symbol id="basket-icon" viewBox="0 0 20 20" fill="none">
        <g clip-path="url(#clip0)" stroke-width="2" stroke-linecap="round" stroke-linejoin="round">
            <path d="M7.5 18.333a.833.833 0 100-1.666.833.833 0 000 1.666zM16.667 18.333a.833.833 0 100-1.666.833.833 0 000 1.666zM.833.833h3.334L6.4 11.992a1.667 1.667 0 001.667 1.341h8.1a1.667 1.667 0 001.666-1.341L19.167 5H5"/>
        </g>
        <defs>
            <clipPath id="clip0">
                <path fill="#fff" d="M0 0h20v20H0z"/>
            </clipPath>
        </defs>
    </symbol>
    <symbol id="searcher-icon" viewBox="0 0 20 20" fill="none">
        <path d="M9.167 15.833a6.667 6.667 0 100-13.333 6.667 6.667 0 000 13.333zM17.5 17.5l-3.625-3.625"
              stroke-width="2" stroke-linecap="round" stroke-linejoin="round"/>
    </symbol>
    <symbol id="logo-icon" viewBox="0 0 36 36">
        <path d="M15.5 1.443a5 5 0 015 0l10.588 6.114a5 5 0 012.5 4.33v12.226a5 5 0 01-2.5 4.33L20.5 34.557a5 5 0 01-5 0L4.912 28.443a5 5 0 01-2.5-4.33V11.887a5 5 0 012.5-4.33L15.5 1.443z"
              fill="#156963"/>
        <path d="M16.3 22.072c-.337 0-.605-.096-.805-.288-.191-.2-.287-.468-.287-.804v-6.42c0-.328.088-.58.264-.756.176-.176.428-.264.755-.264H19.3c.936 0 1.665.24 2.184.72.52.472.78 1.132.78 1.98 0 .84-.264 1.5-.792 1.98-.52.48-1.244.72-2.172.72h-1.883v2.04c0 .336-.1.604-.3.804-.2.192-.473.288-.817.288zm2.7-4.788c.407 0 .707-.084.9-.252.2-.168.3-.428.3-.78 0-.696-.4-1.044-1.2-1.044h-1.584v2.076H19z"
              fill="#fff"/>
    </symbol>
    <symbol id="delivery-icon" viewBox="0 0 48 48" xmlns="http://www.w3.org/2000/svg">
        <g clip-path="url(#clip0)">
            <path d="M13.0001 38H9.00006C8.44806 38 8.00006 37.552 8.00006 37C8.00006 36.448 8.44806 36 9.00006 36H13.0001C13.5521 36 14.0001 36.448 14.0001 37C14.0001 37.552 13.5521 38 13.0001 38Z"
                  fill="#156963"/>
            <path d="M45.5 38H43C42.448 38 42 37.552 42 37C42 36.448 42.448 36 43 36H44.67L46.018 28.816C46 25.14 42.86 22 39 22H32.434L29.252 36H35C35.552 36 36 36.448 36 37C36 37.552 35.552 38 35 38H28C27.696 38 27.408 37.862 27.218 37.624C27.028 37.388 26.956 37.076 27.024 36.78L30.66 20.78C30.764 20.322 31.168 20 31.636 20H39C43.962 20 48 24.038 48 29L46.482 37.184C46.394 37.658 45.982 38 45.5 38Z"
                  fill="#156963"/>
            <path d="M38.9999 42C36.2439 42 33.9999 39.758 33.9999 37C33.9999 34.242 36.2439 32 38.9999 32C41.7559 32 43.9999 34.242 43.9999 37C43.9999 39.758 41.7559 42 38.9999 42ZM38.9999 34C37.3459 34 35.9999 35.346 35.9999 37C35.9999 38.654 37.3459 40 38.9999 40C40.6539 40 41.9999 38.654 41.9999 37C41.9999 35.346 40.6539 34 38.9999 34Z"
                  fill="#156963"/>
            <path d="M17 42C14.244 42 12 39.758 12 37C12 34.242 14.244 32 17 32C19.756 32 22 34.242 22 37C22 39.758 19.756 42 17 42ZM17 34C15.346 34 14 35.346 14 37C14 38.654 15.346 40 17 40C18.654 40 20 38.654 20 37C20 35.346 18.654 34 17 34Z"
                  fill="#156963"/>
            <path d="M12.9999 20H4.99994C4.44794 20 3.99994 19.552 3.99994 19C3.99994 18.448 4.44794 18 4.99994 18H12.9999C13.5519 18 13.9999 18.448 13.9999 19C13.9999 19.552 13.5519 20 12.9999 20Z"
                  fill="#156963"/>
            <path d="M13.0001 26H3.00006C2.44806 26 2.00006 25.552 2.00006 25C2.00006 24.448 2.44806 24 3.00006 24H13.0001C13.5521 24 14.0001 24.448 14.0001 25C14.0001 25.552 13.5521 26 13.0001 26Z"
                  fill="#156963"/>
            <path d="M13 32H1C0.448 32 0 31.552 0 31C0 30.448 0.448 30 1 30H13C13.552 30 14 30.448 14 31C14 31.552 13.552 32 13 32Z"
                  fill="#156963"/>
            <path d="M28.0001 38H21.0001C20.4481 38 20.0001 37.552 20.0001 37C20.0001 36.448 20.4481 36 21.0001 36H27.2021L31.7461 16H9.00006C8.44806 16 8.00006 15.552 8.00006 15C8.00006 14.448 8.44806 14 9.00006 14H33.0001C33.3041 14 33.5921 14.138 33.7821 14.376C33.9721 14.612 34.0441 14.924 33.9761 15.22L28.9761 37.22C28.8721 37.678 28.4661 38 28.0001 38Z"
                  fill="#156963"/>
        </g>
        <defs>
            <clipPath id="clip0">
                <rect width="48" height="48" fill="white"/>
            </clipPath>
        </defs>
    </symbol>
    <symbol id="customer-service-icon" viewBox="0 0 48 48" xmlns="http://www.w3.org/2000/svg">
        <path d="M24 0C12.3689 0 2.90625 9.46266 2.90625 21.0938C2.90625 22.3827 2.90625 32.3539 2.90625 32.5312C2.90625 34.8575 4.79878 36.75 7.125 36.75H8.77313C9.35363 38.3867 10.9167 39.5625 12.75 39.5625C15.0762 39.5625 16.9688 37.67 16.9688 35.3438V23.9062C16.9688 21.58 15.0762 19.6875 12.75 19.6875C10.9167 19.6875 9.35363 20.8633 8.77313 22.5H7.125C6.63197 22.5 6.15891 22.5858 5.71875 22.7419V21.0938C5.71875 11.0135 13.9197 2.8125 24 2.8125C34.0803 2.8125 42.2812 11.0135 42.2812 21.0938V22.7419C41.8411 22.5858 41.368 22.5 40.875 22.5H39.2269C38.6464 20.8633 37.0833 19.6875 35.25 19.6875C32.9238 19.6875 31.0312 21.58 31.0312 23.9062V35.3438C31.0312 37.67 32.9238 39.5625 35.25 39.5625C35.6757 39.5625 36.0867 39.4986 36.4745 39.3807C35.9484 41.1115 34.338 42.375 32.4375 42.375H27.9769C27.3964 40.7383 25.8333 39.5625 24 39.5625C21.6738 39.5625 19.7812 41.455 19.7812 43.7812C19.7812 46.1075 21.6738 48 24 48C25.8333 48 27.3964 46.8242 27.9769 45.1875H32.4375C36.3145 45.1875 39.4688 42.0333 39.4688 38.1562V36.75H40.875C43.2012 36.75 45.0938 34.8575 45.0938 32.5312C45.0938 32.3565 45.0938 22.3817 45.0938 21.0938C45.0938 9.46266 35.6311 0 24 0ZM11.3438 23.9062C11.3438 23.1308 11.9746 22.5 12.75 22.5C13.5254 22.5 14.1562 23.1308 14.1562 23.9062V35.3438C14.1562 36.1192 13.5254 36.75 12.75 36.75C11.9746 36.75 11.3438 36.1192 11.3438 35.3438V23.9062ZM7.125 25.3125H8.53125V33.9375H7.125C6.34959 33.9375 5.71875 33.3067 5.71875 32.5312V26.7188C5.71875 25.9433 6.34959 25.3125 7.125 25.3125ZM24 45.1875C23.2246 45.1875 22.5938 44.5567 22.5938 43.7812C22.5938 43.0058 23.2246 42.375 24 42.375C24.7754 42.375 25.4062 43.0058 25.4062 43.7812C25.4062 44.5567 24.7754 45.1875 24 45.1875ZM36.6562 35.3438C36.6562 36.1192 36.0254 36.75 35.25 36.75C34.4746 36.75 33.8438 36.1192 33.8438 35.3438V23.9062C33.8438 23.1308 34.4746 22.5 35.25 22.5C36.0254 22.5 36.6562 23.1308 36.6562 23.9062V35.3438ZM42.2812 32.5312C42.2812 33.3067 41.6504 33.9375 40.875 33.9375H39.4688V25.3125H40.875C41.6504 25.3125 42.2812 25.9433 42.2812 26.7188V32.5312Z"
              fill="#156963"/>
    </symbol>
    <symbol id="plant-icon" viewBox="0 0 48 48" xmlns="http://www.w3.org/2000/svg">
        <g clip-path="url(#clip0)">
            <path d="M19.2976 6.88197C15.1042 2.69072 6.89824 2.20471 1.0898 2.20471C0.488251 2.20471 0 2.69286 0 3.29441C0 9.10285 0.483858 17.3088 4.67726 21.5023C6.44708 23.2721 9.16061 24.0633 11.8501 24.0633C14.7729 24.0633 17.6695 23.1283 19.2976 21.5002C22.4209 18.3769 22.9942 10.5763 19.2976 6.88197ZM17.7567 19.9614C15.4246 22.2912 8.94922 22.6901 6.22047 19.9614C2.83562 16.5766 2.24928 9.70011 2.18604 4.39076C7.4954 4.454 14.3719 5.04022 17.7566 8.42508C20.4855 11.1538 20.0866 17.6315 17.7567 19.9614Z" fill="#156963"/>
            <path d="M46.9104 6.51575C41.102 6.51575 32.896 6.9996 28.7025 11.193C25.0061 14.8873 25.5792 22.6879 28.7025 25.8112C30.3306 27.4372 33.2251 28.3722 36.1479 28.3722C38.8374 28.3722 41.5488 27.5832 43.3229 25.8135C47.5141 21.6201 48.0001 13.4141 48.0001 7.60555C48.0002 7.004 47.512 6.51575 46.9104 6.51575ZM41.7776 24.2702C39.0489 26.999 32.5712 26.6001 30.2414 24.2702C27.9115 21.9403 27.5126 15.4627 30.2414 12.734C33.6262 9.34911 40.5026 8.76289 45.812 8.69965C45.7488 14.0111 45.1625 20.8876 41.7776 24.2702Z" fill="#156963"/>
            <path d="M39.0397 15.9489C38.7825 15.4018 38.0458 15.2144 37.5031 15.4671C29.1446 19.3969 25.0383 26.2493 23.1726 33.2936C20.8644 18.3157 14.1885 13.7496 11.3573 11.8121C11.0042 11.5701 10.7296 11.3936 10.5771 11.2432C10.152 10.8182 9.46109 10.8182 9.03608 11.2432C8.61107 11.6682 8.61107 12.3592 9.03608 12.7842C9.25186 12.9978 9.62456 13.2659 10.128 13.6102C13.3189 15.7919 21.7951 21.5917 21.7951 44.7057C21.7951 45.3073 22.2833 45.7955 22.8849 45.7955C23.4864 45.7955 23.9747 45.3073 23.9747 44.708C23.9747 35.3687 26.4834 23.0564 38.4316 17.4419C38.4316 17.4398 38.6081 17.3569 38.6081 17.3569C39.1508 17.0997 39.2968 16.4937 39.0397 15.9489Z" fill="#156963"/>
        </g>
        <defs>
            <clipPath id="clip0">
                <rect width="48" height="48" fill="white"/>
            </clipPath>
        </defs>
    </symbol>
    <symbol id="price-icon" viewBox="0 0 48 48" xmlns="http://www.w3.org/2000/svg">
        <g clip-path="url(#clip0)">
            <path d="M24 47.9999C37.2341 47.9999 48 37.234 48 23.9999C48.0058 20.8256 47.3782 17.6821 46.1531 14.7536C46.0244 14.4379 45.7357 14.2149 45.3978 14.171C45.0593 14.1265 44.723 14.2668 44.5169 14.5386C44.3114 14.8108 44.2669 15.1726 44.4015 15.4861C45.5297 18.1826 46.1075 21.0772 46.1017 23.9999C46.1017 36.1869 36.187 46.1016 24 46.1016C11.813 46.1016 1.8983 36.1869 1.8983 23.9999C1.8983 11.8129 11.813 1.8982 24 1.8982C26.4767 1.89502 28.9364 2.30922 31.2754 3.12384C31.5959 3.23771 31.9534 3.17098 32.2113 2.94905C32.4693 2.72765 32.589 2.38443 32.5249 2.05021C32.4608 1.716 32.2225 1.44163 31.9004 1.33146C29.3602 0.446928 26.6896 -0.00328333 24 -0.000105363C10.7659 -0.000105363 0 10.7658 0 23.9999C0 37.234 10.7659 47.9999 24 47.9999Z" fill="#156963"/>
            <path d="M33.4094 6.17269C33.0387 5.80193 32.4375 5.80193 32.0667 6.17269C31.6965 6.54345 31.6965 7.14462 32.0667 7.51538L36.4836 11.9322C36.8485 12.2972 37.4375 12.3035 37.8104 11.9471L45.5969 4.51009C45.8459 4.2765 45.9502 3.92746 45.8708 3.59589C45.7908 3.26432 45.5392 3.00055 45.2113 2.90574C44.884 2.81093 44.5307 2.89939 44.286 3.1372L37.17 9.93381L33.4094 6.17269Z" fill="#156963"/>
            <path d="M24 14.8194C26.2405 14.822 28.0562 16.6377 28.0588 18.8782C28.0588 19.4025 28.4836 19.8273 29.008 19.8273C29.5323 19.8273 29.9571 19.4025 29.9571 18.8782C29.9534 15.956 27.8332 13.4666 24.9492 12.9974V11.1186C24.9492 10.5943 24.5244 10.1695 24 10.1695C23.4756 10.1695 23.0509 10.5943 23.0509 11.1186V12.9974C19.9862 13.4936 17.8162 16.2595 18.0646 19.3543C18.3125 22.4486 20.8957 24.8337 24 24.8347C26.232 24.8347 28.0456 26.6372 28.0583 28.8697C28.0715 31.1017 26.2791 32.9253 24.0472 32.9513C24.0313 32.9502 24.0159 32.9486 24 32.9486C23.9841 32.9486 23.9688 32.9502 23.9529 32.9513C21.7309 32.9232 19.9439 31.1155 19.9412 28.8935C19.9412 28.3692 19.5164 27.9444 18.9921 27.9444C18.4677 27.9444 18.0429 28.3692 18.0429 28.8935C18.0466 31.8157 20.1663 34.3051 23.0509 34.7744V36.8814C23.0509 37.4057 23.4756 37.8305 24 37.8305C24.5244 37.8305 24.9492 37.4057 24.9492 36.8814V34.7744C28.0143 34.2797 30.1854 31.5127 29.937 28.4179C29.6891 25.3231 27.1049 22.9375 24 22.9375C22.5445 22.9454 21.1955 22.1737 20.4656 20.9147C19.7352 19.6552 19.7352 18.1017 20.4656 16.8422C21.1955 15.5832 22.5445 14.8114 24 14.8199V14.8194Z" fill="#156963"/>
        </g>
        <defs>
            <clipPath id="clip0">
                <rect width="48" height="48" fill="white"/>
            </clipPath>
        </defs>
    </symbol>

</svg>